<?xml version="1.0" encoding="UTF-8" standalone="no"?>
<!-- Created with Inkscape (http://www.inkscape.org/) -->

<svg
   xmlns:dc="http://purl.org/dc/elements/1.1/"
   xmlns:cc="http://creativecommons.org/ns#"
   xmlns:rdf="http://www.w3.org/1999/02/22-rdf-syntax-ns#"
   xmlns:svg="http://www.w3.org/2000/svg"
   xmlns="http://www.w3.org/2000/svg"
   xmlns:sodipodi="http://sodipodi.sourceforge.net/DTD/sodipodi-0.dtd"
   xmlns:inkscape="http://www.inkscape.org/namespaces/inkscape"
   width="744.09448819"
   height="1052.3622047"
   id="svg2"
   version="1.1"
   inkscape:version="0.48.2 r9819"
   sodipodi:docname="palmtree.svg"
   inkscape:export-filename="/home/russa/source_graphics/palmtree11.png"
   inkscape:export-xdpi="20.559999"
   inkscape:export-ydpi="20.559999">
  <defs
     id="defs4" />
  <sodipodi:namedview
     id="base"
     pagecolor="#ffffff"
     bordercolor="#666666"
     borderopacity="1.0"
     inkscape:pageopacity="0.0"
     inkscape:pageshadow="2"
     inkscape:zoom="0.64146978"
     inkscape:cx="239.79768"
     inkscape:cy="544.27198"
     inkscape:document-units="px"
     inkscape:current-layer="g3737"
     showgrid="false"
     inkscape:window-width="1374"
     inkscape:window-height="876"
     inkscape:window-x="66"
     inkscape:window-y="24"
     inkscape:window-maximized="1" />
  <metadata
     id="metadata7">
    <rdf:RDF>
      <cc:Work
         rdf:about="">
        <dc:format>image/svg+xml</dc:format>
        <dc:type
           rdf:resource="http://purl.org/dc/dcmitype/StillImage" />
        <dc:title></dc:title>
      </cc:Work>
    </rdf:RDF>
  </metadata>
  <g
     inkscape:label="Palm1"
     inkscape:groupmode="layer"
     id="layer1"
     style="display:none">
    <path
       style="fill:#003000;fill-opacity:1;stroke:#000000;stroke-width:2.03600764px;stroke-linecap:butt;stroke-linejoin:miter;stroke-opacity:1"
       d="m 523.18893,118.69682 68.22806,34.31641 -20.0047,17.46488 65.46329,49.41696 -21.79384,8.87743 45.21444,46.79608 -18.78495,13.86265 41.55513,57.60289 -21.79387,8.87748 25.53497,56.365 -27.4864,-8.98896 -31.71504,-10.37186 -10.97807,32.42045 -22.20084,-59.27585 -12.19786,36.02275 -22.11968,-87.25754 -10.40876,44.61018 -23.90877,-95.84503 -16.42655,34.63984 -23.25831,-111.63705 -2.76539,-88.930409 z"
       id="path3003-1-01"
       inkscape:connector-curvature="0" />
    <path
       style="fill:#003000;fill-opacity:1;stroke:#000000;stroke-width:2.34317756px;stroke-linecap:butt;stroke-linejoin:miter;stroke-opacity:1"
       d="m 459.63301,158.4048 -30.22108,92.58536 -20.16464,-20.53437 -46.3856,92.79474 -11.26593,-24.80884 -45.39206,67.13398 -16.25963,-19.89177 -57.10722,65.20614 -11.26596,-24.80879 -57.20231,45.10498 7.07579,-36.13741 8.16433,-41.69699 -35.14558,-5.78341 60.56307,-41.68259 -39.0507,-6.42602 90.07575,-48.30355 -47.94938,-2.15158 98.9744,-52.57798 -37.96206,-11.98563 115.68323,-55.56713 93.53151,-24.77994 z"
       id="path3003-7-4-97"
       inkscape:connector-curvature="0" />
    <path
       style="fill:#003000;fill-opacity:1;stroke:#000000;stroke-width:2.01689243px;stroke-linecap:butt;stroke-linejoin:miter;stroke-opacity:1"
       d="m 449.24605,169.16101 -47.31111,93.30193 24.79891,-9.95107 -38.84754,99.94868 22.98778,-17.25871 -21.80406,77.04101 22.27956,-10.94876 -14.24595,80.03387 22.98778,-17.25865 -0.42997,62.4384 20.97932,-34.52992 24.20705,-39.84225 22.67409,8.97877 -3.70314,-60.77998 25.19349,9.9764 -14.88339,-78.38803 27.00453,17.2839 -16.69443,-85.69555 28.42106,4.66409 -23.54422,-94.99842 -32.83242,-59.13402 z"
       id="path3003-7-9-3-85"
       inkscape:connector-curvature="0"
       inkscape:transform-center-x="39.784974"
       inkscape:transform-center-y="-48.345645" />
    <path
       style="fill:#003000;fill-opacity:1;stroke:#000000;stroke-width:2.34317756px;stroke-linecap:butt;stroke-linejoin:miter;stroke-opacity:1"
       d="m 438.98957,139.21382 -79.41256,52.38683 -1.82138,-30.12251 -91.23519,41.41974 7.27254,-27.37337 -74.56539,21.81595 0.60388,-26.92505 -81.84103,12.22347 7.27242,-27.37333 -69.414557,-3.73456 27.581772,-23.69795 31.825115,-27.34386 -21.82706,-28.777483 69.7181,8.754895 L 138.8939,48.491543 234.07535,72.337328 200.72923,37.61317 305.00449,64.208081 284.99554,28.58721 l 118.2195,35.739027 83.05848,44.824173 z"
       id="path3003-7-9-5-6-9"
       inkscape:connector-curvature="0"
       inkscape:transform-center-x="-75.940591"
       inkscape:transform-center-y="57.615499" />
    <path
       style="fill:#2b1100;stroke:#000000;stroke-width:1.8820008px;stroke-linecap:butt;stroke-linejoin:miter;stroke-opacity:1"
       d="m 199.72098,1015.7932 39.11,-8.317 26.0733,-19.40642 31.288,-155.25112 31.288,-249.5109 2.6073,-205.1534 5.2147,-232.8767 78.22,8.317 c -8.2892,150.2033 -19.0376,303.0214 -20.8587,446.3471 l -13.0366,255.0555 0,113.66602 28.6806,60.99152 c -60.3358,-33.94492 -134.7332,-23.0358 -208.5866,-13.8616 z"
       id="path2995-6"
       inkscape:connector-curvature="0"
       sodipodi:nodetypes="ccccccccccccc" />
    <path
       style="fill:#008000;stroke:#000000;stroke-width:1.99548221px;stroke-linecap:butt;stroke-linejoin:miter;stroke-opacity:1"
       d="m 462.7401,48.441056 74.00685,14.128078 -14.03913,21.696898 75.59696,29.035858 -18.11906,14.11008 55.73787,31.94291 -13.8892,17.99214 55.28801,43.05727 -18.11906,14.11007 39.80872,46.14163 -28.46876,-1.1523 -32.84855,-1.32958 -1.34959,33.3431 -37.46887,-49.75777 -1.49955,37.04793 -45.17879,-76.04587 2.58035,44.63475 -49.25868,-83.63271 -5.87937,36.87064 -53.03868,-98.62915 -27.35964,-82.746324 z"
       id="path3003-12"
       inkscape:connector-curvature="0" />
    <path
       style="fill:#008000;stroke:#000000;stroke-width:2.29653811px;stroke-linecap:butt;stroke-linejoin:miter;stroke-opacity:1"
       d="m 413.74627,102.56153 -2.78678,94.92076 -24.76444,-13.93075 -17.99973,99.40198 -17.54699,-20.30195 -24.20182,75.05077 -20.89641,-14.36266 -35.80601,76.34639 -17.54702,-20.30188 -41.48949,57.50251 -3.37137,-35.79785 -3.89007,-41.30522 -34.81265,3.88696 45.61688,-55.18073 -38.68075,4.31883 71.65607,-69.21864 -45.89819,10.68997 78.87352,-75.58976 -39.19942,-1.18854 93.82715,-82.82466 81.46692,-48.052918 z"
       id="path3003-7-8"
       inkscape:connector-curvature="0" />
    <path
       style="fill:#008000;stroke:#000000;stroke-width:1.97674751px;stroke-linecap:butt;stroke-linejoin:miter;stroke-opacity:1"
       d="m 406.92653,115.41164 -18.73294,100.12339 20.65928,-15.91443 -8.88748,104.11933 16.91471,-22.29408 0.83949,78.09818 18.00153,-16.18317 8.81271,78.90421 16.91472,-22.294 16.96881,58.72514 10.21112,-37.97426 11.78217,-43.81652 23.91958,2.41827 -20.41199,-56.0728 26.57733,2.68697 -35.87423,-69.63807 30.3218,9.0665 -39.61869,-76.01762 28.14825,-3.15525 -48.67867,-82.93462 -47.47345,-46.806605 z"
       id="path3003-7-9-4"
       inkscape:connector-curvature="0"
       inkscape:transform-center-x="54.197536"
       inkscape:transform-center-y="-28.293415" />
    <path
       style="fill:#008000;stroke:#000000;stroke-width:2.29653811px;stroke-linecap:butt;stroke-linejoin:miter;stroke-opacity:1"
       d="m 388.90333,90.018743 -60.44596,70.225177 -10.10303,-27.79332 -74.66708,63.06412 -0.74671,-27.62319 -64.37371,40.2434 -6.92206,-25.43472 -73.916652,33.1674 -0.746787,-27.62316 -66.617604,14.89376 19.462932,-29.55634 22.457213,-34.1035 L 43.655021,118.25043 111.95648,107.98887 80.146608,84.402223 176.70358,81.557075 135.53746,57.800261 241.45068,55.125278 212.63512,26.991526 l 121.63144,2.212531 90.9417,20.060715 z"
       id="path3003-7-9-5-4"
       inkscape:connector-curvature="0"
       inkscape:transform-center-x="-94.243836"
       inkscape:transform-center-y="31.371642" />
  </g>
  <g
     style="display:none"
     id="g3677"
     inkscape:groupmode="layer"
     inkscape:label="Palm2">
    <path
       inkscape:connector-curvature="0"
       id="path3679"
       d="m 523.79174,116.63919 69.85706,30.86545 -19.10733,18.44235 67.85004,46.08526 -21.32319,9.95499 47.49554,44.47912 -18.06903,14.78368 44.38062,55.45523 -21.32321,9.95504 28.31863,55.01912 -27.90111,-7.60475 -32.19354,-8.77468 -9.3449,32.92835 -25.13406,-58.09288 -10.38323,36.58709 -26.45075,-86.0437 -8.1674,45.07443 -28.66656,-94.53109 -14.67572,35.41713 -28.80575,-110.33589 -7.20418,-88.681252 z"
       style="fill:#003000;fill-opacity:1;stroke:#000000;stroke-width:2.03600764px;stroke-linecap:butt;stroke-linejoin:miter;stroke-opacity:1"
       inkscape:transform-center-x="-110.08349"
       inkscape:transform-center-y="152.31758" />
    <path
       inkscape:connector-curvature="0"
       id="path3681"
       d="m 470.76295,152.44762 -19.21879,95.47776 -22.42154,-18.04295 -35.24861,97.57061 -14.08197,-23.32591 -37.25409,71.96904 -18.46823,-17.86007 -49.11413,71.42042 -14.08199,-23.32585 -51.55251,51.46749 2.81363,-36.71598 3.24646,-42.36455 -35.58021,-1.64573 55.28942,-48.46033 -39.53362,-1.82859 83.82872,-58.47752 -47.87317,3.45435 92.16823,-63.76044 -39.10069,-7.47721 108.41451,-68.67756 90.00393,-35.517354 z"
       style="fill:#003000;fill-opacity:1;stroke:#000000;stroke-width:2.34317756px;stroke-linecap:butt;stroke-linejoin:miter;stroke-opacity:1"
       inkscape:transform-center-x="82.885105"
       inkscape:transform-center-y="216.75894" />
    <path
       inkscape:transform-center-y="197.88292"
       inkscape:transform-center-x="8.19134"
       inkscape:connector-curvature="0"
       id="path3683"
       d="m 453.93796,172.87579 -37.48417,97.66539 23.64648,-12.44401 -28.38304,103.40828 21.09482,-19.52714 -13.78096,78.87217 21.03804,-13.17783 -5.95558,81.07342 21.09483,-19.52709 5.98134,62.15273 17.32416,-36.50097 19.98955,-42.11655 23.47596,6.60395 -9.92238,-60.07883 26.08445,7.3377 -22.85097,-76.44626 28.63601,14.4207 -25.40253,-83.52929 28.74969,1.72216 -33.17103,-92.07993 -38.72885,-55.45157 z"
       style="fill:#003000;fill-opacity:1;stroke:#000000;stroke-width:2.01689243px;stroke-linecap:butt;stroke-linejoin:miter;stroke-opacity:1" />
    <path
       inkscape:transform-center-y="87.268263"
       inkscape:transform-center-x="128.71184"
       inkscape:connector-curvature="0"
       id="path3685"
       d="m 454.17453,133.24338 -67.57353,66.9668 -7.70354,-29.17771 -81.32029,58.53601 1.75324,-28.26866 -68.82655,36.0394 -4.69739,-26.519 -77.84488,28.06317 1.75314,-28.2686 -68.795562,9.97489 22.388772,-28.65467 25.83317,-33.06315 -27.05514,-23.92872 70.07945,-5.11202 -30.06132,-26.58752 98.01125,4.68245 -39.51797,-27.496561 107.46792,5.591504 -26.61686,-30.995925 122.93682,11.818047 90.24577,27.633632 z"
       style="fill:#003000;fill-opacity:1;stroke:#000000;stroke-width:2.34317756px;stroke-linecap:butt;stroke-linejoin:miter;stroke-opacity:1" />
    <path
       sodipodi:nodetypes="ccccccccccccc"
       inkscape:connector-curvature="0"
       id="path3687"
       d="m 199.72098,1015.7932 39.11,-8.317 26.0733,-19.40642 31.288,-155.25112 31.288,-249.5109 2.6073,-205.1534 5.2147,-232.8767 78.22,8.317 c -8.2892,150.2033 -19.0376,303.0214 -20.8587,446.3471 l -13.0366,255.0555 0,113.66602 28.6806,60.99152 c -60.3358,-33.94492 -134.7332,-23.0358 -208.5866,-13.8616 z"
       style="fill:#2b1100;stroke:#000000;stroke-width:1.8820008px;stroke-linecap:butt;stroke-linejoin:miter;stroke-opacity:1" />
    <path
       inkscape:connector-curvature="0"
       id="path3689"
       d="m 461.42656,43.830439 75.26246,3.489839 -10.82024,23.468595 78.95067,18.021439 -15.93487,16.537058 59.70457,23.71547 -11.19722,19.78002 60.83546,34.7813 -15.93487,16.53705 45.95004,40.02971 -28.34444,2.8967 -32.7051,3.34235 3.39268,33.19749 -44.14668,-43.94113 3.76964,36.88614 -55.50677,-68.87013 8.88424,43.81768 -60.62137,-75.80169 -0.59105,37.33178 -66.48993,-90.1105 -38.81796,-78.029925 z"
       style="fill:#008000;stroke:#000000;stroke-width:1.99548221px;stroke-linecap:butt;stroke-linejoin:miter;stroke-opacity:1"
       inkscape:transform-center-x="-142.91755"
       inkscape:transform-center-y="104.91744" />
    <path
       inkscape:connector-curvature="0"
       id="path3691"
       d="m 416.7649,102.71987 4.07947,94.87399 L 395.13803,185.489 384.36814,285.93179 365.4,266.95086 l -18.71539,76.60339 -21.87963,-12.81514 -30.19562,78.73415 -18.96816,-18.98086 -37.22591,60.35021 -5.9493,-35.46065 -6.86462,-40.91614 -34.44077,6.39235 41.51028,-58.33275 -38.26756,7.10261 66.46702,-74.21555 -45.00575,13.97862 73.20522,-81.09155 -39.18283,1.64712 87.59697,-89.38809 77.78165,-53.814091 z"
       style="fill:#008000;stroke:#000000;stroke-width:2.29653811px;stroke-linecap:butt;stroke-linejoin:miter;stroke-opacity:1"
       inkscape:transform-center-x="111.44145"
       inkscape:transform-center-y="187.87284" />
    <path
       inkscape:transform-center-y="179.49842"
       inkscape:transform-center-x="-60.078458"
       inkscape:connector-curvature="0"
       id="path3693"
       d="m 411.78227,116.8148 -7.14285,101.61002 18.70072,-18.17577 3.09547,104.4521 14.25014,-24.08458 9.77832,77.48816 16.02967,-18.13835 17.79139,77.37574 14.25016,-24.0845 23.58277,56.39535 5.79485,-38.89385 6.68647,-44.87759 24.03915,-0.33708 -26.69953,-53.36612 26.71018,-0.37453 -43.61362,-65.07129 31.16065,5.53417 -48.06408,-70.98002 27.60168,-6.35822 -57.85663,-76.813902 -52.5217,-41.061631 z"
       style="fill:#008000;stroke:#000000;stroke-width:1.97674751px;stroke-linecap:butt;stroke-linejoin:miter;stroke-opacity:1" />
    <path
       inkscape:transform-center-y="91.476762"
       inkscape:transform-center-x="164.31432"
       inkscape:connector-curvature="0"
       id="path3695"
       d="m 393.66671,91.641951 -50.39602,77.753009 -13.76809,-26.17211 -65.45478,72.5805 -4.47468,-27.26858 -58.34143,48.5776 -10.29744,-24.26525 -68.75346,42.85684 -4.47476,-27.26854 L 53.713899,252.19955 69.001905,220.2831 86.641892,183.45639 55.405763,166.29419 121.69261,146.89206 86.985769,127.8229 182.27142,111.94875 138.27124,93.976009 242.85023,77.005442 210.4954,53.026078 331.30911,38.772941 l 92.81896,7.580605 z"
       style="fill:#008000;stroke:#000000;stroke-width:2.29653811px;stroke-linecap:butt;stroke-linejoin:miter;stroke-opacity:1" />
  </g>
  <g
     inkscape:label="Palm3"
     inkscape:groupmode="layer"
     id="g3697"
     style="display:none">
    <path
       inkscape:transform-center-y="147.6554"
       inkscape:transform-center-x="-118.30932"
       style="fill:#003000;fill-opacity:1;stroke:#000000;stroke-width:2.03600764px;stroke-linecap:butt;stroke-linejoin:miter;stroke-opacity:1"
       d="m 524.3653,114.19815 71.54069,26.73229 -17.99746,19.52695 70.4261,42.04334 -20.70529,11.18352 50.01254,41.62889 -17.17464,15.81387 47.54407,52.76821 -20.70532,11.18356 31.48403,53.27105 -28.29767,-5.96202 -32.65112,-6.87922 -7.40555,33.41797 -28.48444,-56.52557 -8.22839,37.13112 -31.43153,-84.35176 -5.52059,45.47454 -34.13932,-92.69522 -12.5819,36.21389 -35.20145,-108.46492 -12.37189,-88.109026 z"
       id="path3699"
       inkscape:connector-curvature="0" />
    <path
       inkscape:transform-center-y="222.68152"
       inkscape:transform-center-x="64.03755"
       style="fill:#003000;fill-opacity:1;stroke:#000000;stroke-width:2.34317756px;stroke-linecap:butt;stroke-linejoin:miter;stroke-opacity:1"
       d="m 480.06431,146.05531 -9.15701,96.9614 -24.18091,-15.60632 -24.88116,100.71453 -16.43775,-21.73017 -29.5456,75.4617 -20.23008,-15.83671 -41.39818,76.15291 -16.43776,-21.73011 -45.90408,56.56306 -1.03067,-36.8092 -1.18927,-42.47211 -35.55783,2.07376 49.93421,-53.96201 -39.50875,2.30418 77.27324,-66.90082 -47.25189,8.42802 85.01635,-73.02463 -39.66726,-3.35879 100.66126,-79.6092 85.8092,-44.709839 z"
       id="path3701"
       inkscape:connector-curvature="0" />
    <path
       style="fill:#003000;fill-opacity:1;stroke:#000000;stroke-width:2.01689243px;stroke-linecap:butt;stroke-linejoin:miter;stroke-opacity:1"
       d="m 456.37828,174.52034 -32.50179,99.43453 22.98755,-13.62285 -23.12213,104.71025 20.08128,-20.56801 -9.77837,79.46772 20.34536,-14.22394 -1.85177,81.27078 20.08129,-20.56796 9.11395,61.77114 15.45783,-37.32965 17.8361,-43.07272 23.77964,5.4094 -12.94517,-59.50077 26.42187,6.01042 -26.6842,-75.19409 29.32803,12.95546 -29.59037,-82.13916 28.79999,0.2674 -37.78097,-90.28638 -41.48106,-53.42398 z"
       id="path3703"
       inkscape:connector-curvature="0"
       inkscape:transform-center-x="-1.648045"
       inkscape:transform-center-y="198.61062" />
    <path
       style="fill:#003000;fill-opacity:1;stroke:#000000;stroke-width:2.34317756px;stroke-linecap:butt;stroke-linejoin:miter;stroke-opacity:1"
       d="m 469.43552,123.14852 -51.18312,80.19366 -13.93462,-26.7677 -66.44799,74.99412 -4.50957,-27.96166 -59.21027,50.29986 -10.41715,-24.83557 -69.76258,44.50337 -4.50965,-27.96159 -64.91492,24.86728 15.53533,-32.87858 17.92534,-37.93688 -31.65707,-17.38948 67.2373,-20.40606 -35.17459,-19.32169 96.63965,-16.99734 -44.59951,-18.12774 106.06458,-18.19129 -32.7845,-24.379926 122.52441,-15.520895 94.11432,7.100002 z"
       id="path3705"
       inkscape:connector-curvature="0"
       inkscape:transform-center-x="104.02866"
       inkscape:transform-center-y="121.76654" />
    <path
       style="fill:#2b1100;stroke:#000000;stroke-width:1.8820008px;stroke-linecap:butt;stroke-linejoin:miter;stroke-opacity:1"
       d="m 199.72098,1015.7932 39.11,-8.317 26.0733,-19.40642 31.288,-155.25112 31.288,-249.5109 2.6073,-205.1534 5.2147,-232.8767 78.22,8.317 c -8.2892,150.2033 -19.0376,303.0214 -20.8587,446.3471 l -13.0366,255.0555 0,113.66602 28.6806,60.99152 c -60.3358,-33.94492 -134.7332,-23.0358 -208.5866,-13.8616 z"
       id="path3707"
       inkscape:connector-curvature="0"
       sodipodi:nodetypes="ccccccccccccc" />
    <path
       inkscape:transform-center-y="101.62305"
       inkscape:transform-center-x="-145.28784"
       style="fill:#008000;stroke:#000000;stroke-width:1.99548221px;stroke-linecap:butt;stroke-linejoin:miter;stroke-opacity:1"
       d="m 461.08532,42.931893 75.33135,1.343291 -10.14694,23.767459 79.43224,15.763866 -15.45705,16.984511 60.35625,22.00414 -10.6289,20.09113 61.80208,33.03324 -15.45706,16.9845 47.0723,38.70378 -28.25036,3.7034 -32.59655,4.27315 4.33749,33.08731 -45.38115,-42.66501 4.81944,36.76371 -57.44716,-67.2601 10.12952,43.54666 -62.75724,-74.04306 0.47322,37.33346 -69.03124,-88.1788 -41.0262,-76.891834 z"
       id="path3709"
       inkscape:connector-curvature="0" />
    <path
       inkscape:transform-center-y="194.29501"
       inkscape:transform-center-x="93.87724"
       style="fill:#008000;stroke:#000000;stroke-width:2.29653811px;stroke-linecap:butt;stroke-linejoin:miter;stroke-opacity:1"
       d="m 419.98737,102.64794 11.37697,94.27768 -26.56255,-10.08832 -2.99919,100.97401 -20.37416,-17.4631 -12.75779,77.81763 -22.80195,-11.09131 -24.03974,80.82656 -20.37417,-17.46303 -32.46553,63.03892 -8.66371,-34.89687 -9.99663,-40.26563 -33.84589,9.02686 36.8926,-61.35755 -37.60658,10.02985 60.55146,-79.11595 -43.79498,17.40457 66.73986,-86.49066 -38.93946,4.6611 80.44962,-95.87137 73.40431,-59.646872 z"
       id="path3711"
       inkscape:connector-curvature="0" />
    <path
       style="fill:#008000;stroke:#000000;stroke-width:1.97674751px;stroke-linecap:butt;stroke-linejoin:miter;stroke-opacity:1"
       d="m 414.63393,117.36604 -0.43284,101.85985 17.4626,-19.36836 9.97048,104.02121 12.63239,-24.97111 14.86232,76.67557 14.79981,-19.15505 22.85057,76.03546 12.63241,-24.97103 27.24709,54.71908 3.21977,-39.19113 3.71522,-45.22062 23.96471,-1.92014 -30.1575,-51.4911 26.62747,-2.13349 -47.80603,-62.05646 31.45756,3.46915 -52.63611,-67.65914 27.12281,-8.16292 -62.79175,-72.835167 -55.1129,-37.512066 z"
       id="path3713"
       inkscape:connector-curvature="0"
       inkscape:transform-center-x="-74.313933"
       inkscape:transform-center-y="176.0006" />
    <path
       style="fill:#008000;stroke:#000000;stroke-width:2.29653811px;stroke-linecap:butt;stroke-linejoin:miter;stroke-opacity:1"
       d="m 398.02773,92.528962 -40.73263,83.223448 -16.80015,-24.3371 -56.30203,79.88954 -7.70465,-26.53746 -52.11119,55.20805 -13.12631,-22.85912 -63.13282,50.77395 -7.70472,-26.53741 L 79.723494,292.60162 91.083593,259.08549 104.19138,220.413 71.126472,207.11078 134.61625,179.91818 97.877427,165.13789 190.5798,137.97885 144.74555,125.39886 246.54336,96.039524 211.55226,76.102925 329.79329,47.499371 422.85255,43.921737 z"
       id="path3715"
       inkscape:connector-curvature="0"
       inkscape:transform-center-x="156.24579"
       inkscape:transform-center-y="112.49999" />
  </g>
  <g
     style="display:none"
     id="g3717"
     inkscape:groupmode="layer"
     inkscape:label="Palm4">
    <path
       inkscape:connector-curvature="0"
       id="path3719"
       d="m 524.05989,115.57674 70.62243,29.07163 -18.63019,18.92423 69.00467,44.33772 -21.06203,10.49622 48.61579,43.25186 -17.68564,15.24022 45.78216,54.30393 -21.06207,10.49626 29.71428,54.2781 -28.08619,-6.88984 -32.40711,-7.94978 -8.50104,33.15622 -26.60923,-57.43215 -9.44562,36.84029 -28.63919,-85.34025 -7.01379,45.26829 -31.071,-93.76827 -13.76659,35.78031 -31.61371,-109.56438 -9.46625,-88.468387 z"
       style="fill:#003000;fill-opacity:1;stroke:#000000;stroke-width:2.03600764px;stroke-linecap:butt;stroke-linejoin:miter;stroke-opacity:1"
       inkscape:transform-center-x="-113.72565"
       inkscape:transform-center-y="150.34354" />
    <path
       inkscape:connector-curvature="0"
       id="path3721"
       d="m 488.60251,138.77127 0.94776,97.38822 -25.66899,-13.01449 -14.30238,102.75179 -18.60265,-19.90832 -21.56053,78.11884 -21.76335,-13.65335 -33.27751,80.0355 -18.60265,-19.90827 -39.7907,61.01857 -4.84241,-36.50383 -5.58743,-42.11978 -35.15105,5.75011 44.06883,-58.84948 -39.05677,6.38902 69.91863,-74.55374 -46.12308,13.28284 76.98492,-81.44752 -39.8017,0.77303 91.86262,-89.61905 80.70988,-53.367626 z"
       style="fill:#003000;fill-opacity:1;stroke:#000000;stroke-width:2.34317756px;stroke-linecap:butt;stroke-linejoin:miter;stroke-opacity:1"
       inkscape:transform-center-x="44.309295"
       inkscape:transform-center-y="226.16299" />
    <path
       inkscape:transform-center-y="198.67841"
       inkscape:transform-center-x="-3.151635"
       inkscape:connector-curvature="0"
       id="path3723"
       d="m 456.76608,174.76552 -31.71726,99.68755 22.87949,-13.80356 -22.29632,104.8892 19.91859,-20.72561 -9.15187,79.5423 20.23264,-14.38381 -1.21132,81.28284 19.9186,-20.72556 9.60041,61.69742 15.1632,-37.4503 17.49614,-43.21194 23.82152,5.22186 -13.41361,-59.39692 26.46841,5.80204 -27.27589,-74.98149 29.42921,12.72396 -30.2367,-81.90345 28.80121,0.0405 -38.49124,-89.98587 -41.90074,-53.09546 z"
       style="fill:#003000;fill-opacity:1;stroke:#000000;stroke-width:2.01689243px;stroke-linecap:butt;stroke-linejoin:miter;stroke-opacity:1" />
    <path
       inkscape:transform-center-y="150.58586"
       inkscape:transform-center-x="72.145575"
       inkscape:connector-curvature="0"
       id="path3725"
       d="m 486.98531,102.8256 -22.7743,92.36918 -21.78013,-20.88803 -38.90039,92.33751 -13.23523,-25.04036 -39.96085,66.62628 -17.82892,-20.18545 -51.81444,64.51844 -13.23529,-25.04026 -53.51734,44.36464 4.17558,-36.12356 4.81794,-41.68108 -35.56091,-6.32346 57.1473,-40.88336 -39.5122,-7.02609 86.09068,-47.08001 -48.05697,-2.87382 94.63546,-51.2323 -38.86976,-12.58356 111.08267,-53.97935 91.42349,-23.444863 z"
       style="fill:#003000;fill-opacity:1;stroke:#000000;stroke-width:2.34317756px;stroke-linecap:butt;stroke-linejoin:miter;stroke-opacity:1" />
    <path
       sodipodi:nodetypes="ccccccccccccc"
       inkscape:connector-curvature="0"
       id="path3727"
       d="m 199.72098,1015.7932 39.11,-8.317 26.0733,-19.40642 31.288,-155.25112 31.288,-249.5109 2.6073,-205.1534 5.2147,-232.8767 78.22,8.317 c -8.2892,150.2033 -19.0376,303.0214 -20.8587,446.3471 l -13.0366,255.0555 0,113.66602 28.6806,60.99152 c -60.3358,-33.94492 -134.7332,-23.0358 -208.5866,-13.8616 z"
       style="fill:#2b1100;stroke:#000000;stroke-width:1.8820008px;stroke-linecap:butt;stroke-linejoin:miter;stroke-opacity:1" />
    <path
       inkscape:connector-curvature="0"
       id="path3729"
       d="m 462.00021,45.551171 74.96591,7.531884 -12.06656,22.852803 77.86737,22.240786 -16.80105,15.656266 58.34293,26.89166 -12.24466,19.14929 58.87715,38.00229 -16.80107,15.65625 43.73104,42.44267 -28.45919,1.36834 -32.83751,1.57887 1.60263,33.33189 -41.71995,-46.25146 1.7807,37.03548 -51.7231,-71.75526 6.51517,44.23201 -56.45757,-78.95181 -2.59764,37.24598 -61.5482,-93.55549 -34.5659,-80.00439 z"
       style="fill:#008000;stroke:#000000;stroke-width:1.99548221px;stroke-linecap:butt;stroke-linejoin:miter;stroke-opacity:1"
       inkscape:transform-center-x="-138.12935"
       inkscape:transform-center-y="110.90057" />
    <path
       inkscape:connector-curvature="0"
       id="path3731"
       d="m 424.79036,102.07482 22.19108,92.3324 -27.55008,-6.95248 8.68466,100.64454 -22.25498,-14.99273 -3.68348,78.7704 -23.93049,-8.38315 -14.54234,83.0624 -22.25498,-14.99266 -24.96642,66.36712 -12.63675,-33.66251 -14.5809,-38.84136 -32.57661,12.87607 29.55808,-65.20839 -36.19628,14.30675 51.00725,-85.5808 -41.49137,22.34693 56.30235,-93.62099 -38.14039,9.1279 68.83674,-104.52255 66.02298,-67.726721 z"
       style="fill:#008000;stroke:#000000;stroke-width:2.29653811px;stroke-linecap:butt;stroke-linejoin:miter;stroke-opacity:1"
       inkscape:transform-center-x="68.92778"
       inkscape:transform-center-y="201.75712" />
    <path
       inkscape:transform-center-y="177.39522"
       inkscape:transform-center-x="-69.038133"
       inkscape:connector-curvature="0"
       id="path3733"
       d="m 413.56638,117.18249 -2.93673,101.81842 17.93346,-18.93322 7.41032,104.23488 13.24244,-24.65302 12.97291,77.01775 15.26622,-18.78544 20.97449,76.57422 13.24246,-24.65295 25.8937,55.37236 4.18223,-39.10013 4.82575,-45.11563 24.00467,-1.33043 -28.88258,-52.2169 26.67187,-1.47827 -46.26605,-63.21292 31.36277,4.24143 -50.95694,-68.93265 27.31528,-7.49369 L 468.84038,96.179538 414.66629,57.32397 z"
       style="fill:#008000;stroke:#000000;stroke-width:1.97674751px;stroke-linecap:butt;stroke-linejoin:miter;stroke-opacity:1" />
    <path
       inkscape:transform-center-y="155.65182"
       inkscape:transform-center-x="125.22837"
       inkscape:connector-curvature="0"
       id="path3735"
       d="m 410.21767,92.233565 -11.58,91.930385 -23.7774,-17.58339 -27.38991,93.81926 -15.88496,-22.61122 -31.41952,69.11093 -19.82289,-17.37506 -43.2832,68.48586 -15.88502,-22.61113 -47.29617,49.22195 -0.10846,-35.38885 -0.12517,-40.83333 -35.59103,-1.87511 51.25908,-46.29143 -39.54563,-2.08347 78.90766,-55.72186 -47.43802,2.94427 86.80007,-60.7496 -39.5623,-7.52792 102.60161,-65.36064 86.88351,-33.52734 z"
       style="fill:#008000;stroke:#000000;stroke-width:2.29653811px;stroke-linecap:butt;stroke-linejoin:miter;stroke-opacity:1" />
  </g>
  <g
     inkscape:label="Palm5"
     inkscape:groupmode="layer"
     id="g3737"
     style="display:inline">
    <path
       inkscape:transform-center-y="161.87849"
       inkscape:transform-center-x="-85.623785"
       style="fill:#003000;fill-opacity:1;stroke:#000000;stroke-width:2.03600764px;stroke-linecap:butt;stroke-linejoin:miter;stroke-opacity:1"
       d="m 521.67456,122.71911 64.45301,40.96947 -21.65147,15.3761 60.1915,55.71769 -22.57256,6.65276 40.30639,51.08439 -20.07746,11.91393 35.58437,61.47093 -22.57261,6.6528 19.76841,58.63667 -26.44931,-11.69348 -30.51841,-13.49245 -14.16618,31.15963 -16.15981,-61.19937 -15.74021,34.62185 -13.27993,-89.03261 -14.81912,43.34519 -14.20099,-97.75597 -19.80936,32.82285 -11.97403,-113.40371 6.14463,-88.760971 z"
       id="path3739"
       inkscape:connector-curvature="0" />
    <path
       inkscape:transform-center-y="214.47971"
       inkscape:transform-center-x="88.460015"
       style="fill:#003000;fill-opacity:1;stroke:#000000;stroke-width:2.34317756px;stroke-linecap:butt;stroke-linejoin:miter;stroke-opacity:1"
       d="m 467.80017,154.19934 -22.24935,94.81735 -21.83563,-18.74778 -38.33767,96.39871 -13.33207,-23.76249 -39.52691,70.74626 -17.89014,-18.4391 -51.36346,69.82026 -13.33208,-23.76244 -53.16527,49.7998 3.9814,-36.60774 4.59384,-42.2397 -35.50977,-2.77788 56.8045,-46.67517 -39.45534,-3.08654 85.64831,-55.77851 -47.95888,1.92818 94.15181,-60.79318 -38.84276,-8.7185 110.54644,-65.19049 91.08925,-32.63335 z"
       id="path3741"
       inkscape:connector-curvature="0" />
    <path
       style="fill:#003000;fill-opacity:1;stroke:#000000;stroke-width:2.01689243px;stroke-linecap:butt;stroke-linejoin:miter;stroke-opacity:1"
       d="m 449.37173,169.27115 -47.04314,93.43734 24.77024,-10.02221 -38.56052,100.05977 22.93815,-17.32461 -21.58285,77.10327 22.24804,-11.01266 -14.0162,80.07443 22.93815,-17.32456 -0.25075,62.43938 20.88012,-34.59 24.09261,-39.91157 22.69975,8.91367 -3.87755,-60.7691 25.22202,9.90405 -15.10831,-78.34499 27.05402,17.20633 -16.94032,-85.6473 28.43434,4.58256 -23.81678,-94.93047 -33.002,-59.03953 z"
       id="path3743"
       inkscape:connector-curvature="0"
       inkscape:transform-center-x="26.782865"
       inkscape:transform-center-y="194.95878" />
    <path
       style="fill:#003000;fill-opacity:1;stroke:#000000;stroke-width:2.34317756px;stroke-linecap:butt;stroke-linejoin:miter;stroke-opacity:1"
       d="m 475.14034,117.91677 -43.45638,84.63023 -16.37768,-25.3467 -59.14075,80.88156 -7.10566,-27.41715 -54.24494,55.61848 -12.6949,-23.7521 -65.29325,50.8346 -7.10574,-27.41708 -62.30384,30.83113 12.39135,-34.18774 14.29767,-39.44746 -33.14506,-14.35163 65.03341,-26.60675 -36.82792,-15.9463 94.6257,-25.9636 -46.09979,-13.87589 103.8976,-28.03404 -34.92152,-21.205946 120.53507,-26.915204 94.3658,-1.735695 z"
       id="path3745"
       inkscape:connector-curvature="0"
       inkscape:transform-center-x="95.221605"
       inkscape:transform-center-y="132.95865" />
    <path
       style="fill:#2b1100;stroke:#000000;stroke-width:1.8820008px;stroke-linecap:butt;stroke-linejoin:miter;stroke-opacity:1"
       d="m 199.72098,1015.7932 39.11,-8.317 26.0733,-19.40642 31.288,-155.25112 31.288,-249.5109 2.6073,-205.1534 5.2147,-232.8767 78.22,8.317 c -8.2892,150.2033 -19.0376,303.0214 -20.8587,446.3471 l -13.0366,255.0555 0,113.66602 28.6806,60.99152 c -60.3358,-33.94492 -134.7332,-23.0358 -208.5866,-13.8616 z"
       id="path3747"
       inkscape:connector-curvature="0"
       sodipodi:nodetypes="ccccccccccccc" />
    <path
       inkscape:transform-center-y="130.04953"
       inkscape:transform-center-x="-117.16173"
       style="fill:#008000;stroke:#000000;stroke-width:1.99548221px;stroke-linecap:butt;stroke-linejoin:miter;stroke-opacity:1"
       d="m 463.29819,52.095403 72.01552,22.144551 -16.32987,20.029674 71.96414,37.136802 -19.55475,12.04183 51.90617,37.85245 -15.77529,16.36359 50.24235,48.85079 -19.55477,12.0418 34.51845,50.22212 -28.17153,-4.2618 -32.50559,-4.91744 -4.99149,32.99497 -31.79681,-53.56038 -5.5461,36.66113 -36.58269,-80.53448 -2.32124,44.64896 -39.80755,-88.52234 -9.88018,36.00545 -41.9232,-103.84245 -18.13715,-85.244048 z"
       id="path3749"
       inkscape:connector-curvature="0" />
    <path
       inkscape:transform-center-y="176.6223"
       inkscape:transform-center-x="130.53558"
       style="fill:#008000;stroke:#000000;stroke-width:2.29653811px;stroke-linecap:butt;stroke-linejoin:miter;stroke-opacity:1"
       d="m 412.11721,102.38463 -6.50458,94.73863 -24.19948,-14.89058 -21.88145,98.62023 -16.73788,-20.97402 -27.12445,74.04462 -20.31749,-15.17054 -38.77052,74.88451 -16.7379,-20.97395 -43.71115,55.83236 -1.96586,-35.90248 -2.26835,-41.42593 -34.93823,2.51967 47.74438,-53.35063 -38.8203,2.79962 74.3137,-66.35726 -46.28187,8.88301 81.77529,-72.44065 -39.12274,-2.72384 97.00097,-79.083956 83.28753,-44.82332 z"
       id="path3751"
       inkscape:connector-curvature="0" />
    <path
       style="fill:#008000;stroke:#000000;stroke-width:1.97674751px;stroke-linecap:butt;stroke-linejoin:miter;stroke-opacity:1"
       d="m 403.72851,114.14266 -26.48834,98.35641 21.8381,-14.2539 -16.98469,103.10841 18.60272,-20.90627 -5.25697,77.92557 19.20938,-14.72921 2.62905,79.35131 18.60273,-20.9062 12.33483,59.87014 13.14306,-37.06172 15.1652,-42.7636 23.65795,4.27734 -15.97446,-57.49457 26.28663,4.75257 -30.33108,-72.22497 29.52191,11.40483 -33.56634,-78.87726 28.30864,-0.94924 -42.05898,-86.4801 -43.67645,-50.368192 z"
       id="path3753"
       inkscape:connector-curvature="0"
       inkscape:transform-center-x="-22.301093"
       inkscape:transform-center-y="185.21195" />
    <path
       style="fill:#008000;stroke:#000000;stroke-width:2.29653811px;stroke-linecap:butt;stroke-linejoin:miter;stroke-opacity:1"
       d="m 401.98347,92.874815 -31.61327,87.097035 -19.30278,-22.40408 -47.44965,85.44466 -10.49423,-25.56306 -45.91822,60.45679 -15.49213,-21.32683 -57.35031,57.22491 -10.49431,-25.56299 -57.00605,37.55047 7.71635,-34.53752 8.90345,-39.85104 -34.29627,-9.69554 60.22321,-33.8165 -38.107,-10.77284 89.27236,-36.90242 -46.91547,-7.61394 98.08087,-40.06131 -36.91986,-16.086319 114.51077,-41.065643 92.14522,-13.493924 z"
       id="path3755"
       inkscape:connector-curvature="0"
       inkscape:transform-center-x="147.90421"
       inkscape:transform-center-y="128.08154" />
  </g>
</svg>
