<?xml version="1.0" encoding="UTF-8" standalone="no"?>
<!-- Created with Inkscape (http://www.inkscape.org/) -->

<svg
   xmlns:dc="http://purl.org/dc/elements/1.1/"
   xmlns:cc="http://creativecommons.org/ns#"
   xmlns:rdf="http://www.w3.org/1999/02/22-rdf-syntax-ns#"
   xmlns:svg="http://www.w3.org/2000/svg"
   xmlns="http://www.w3.org/2000/svg"
   xmlns:sodipodi="http://sodipodi.sourceforge.net/DTD/sodipodi-0.dtd"
   xmlns:inkscape="http://www.inkscape.org/namespaces/inkscape"
   width="500"
   height="330"
   id="svg3454"
   version="1.1"
   inkscape:version="0.48.2 r9819"
   sodipodi:docname="rock.svg"
   inkscape:export-filename="/home/russa/Source/asgard/rock.png"
   inkscape:export-xdpi="14.26"
   inkscape:export-ydpi="14.26">
  <defs
     id="defs3456" />
  <sodipodi:namedview
     id="base"
     pagecolor="#ffffff"
     bordercolor="#666666"
     borderopacity="1.0"
     inkscape:pageopacity="0.0"
     inkscape:pageshadow="2"
     inkscape:zoom="0.7"
     inkscape:cx="123.30504"
     inkscape:cy="433.4101"
     inkscape:document-units="px"
     inkscape:current-layer="layer1"
     showgrid="false"
     inkscape:window-width="1374"
     inkscape:window-height="876"
     inkscape:window-x="66"
     inkscape:window-y="24"
     inkscape:window-maximized="1" />
  <metadata
     id="metadata3459">
    <rdf:RDF>
      <cc:Work
         rdf:about="">
        <dc:format>image/svg+xml</dc:format>
        <dc:type
           rdf:resource="http://purl.org/dc/dcmitype/StillImage" />
        <dc:title></dc:title>
      </cc:Work>
    </rdf:RDF>
  </metadata>
  <g
     inkscape:label="Layer 1"
     inkscape:groupmode="layer"
     id="layer1"
     transform="translate(0,-722.36218)">
    <path
       style="fill:#808080;stroke:#000000;stroke-width:1.00317371px;stroke-linecap:butt;stroke-linejoin:miter;stroke-opacity:1"
       d="m 298.34094,741.3223 c -4.76092,7.09576 -11.72107,1.0252 -17.25184,2.85714 -1.28588,0.42592 -1.74752,2.11004 -2.87531,2.85715 -1.78318,1.18128 -3.96742,1.67586 -5.75062,2.85714 -1.12778,0.74711 -1.7475,2.11003 -2.8753,2.85714 -1.78318,1.18128 -4.03611,1.57939 -5.75061,2.85714 -3.25304,2.42437 -5.24256,6.33011 -8.62592,8.57143 -3.56638,2.36257 -7.93485,3.35172 -11.50123,5.71429 -1.12779,0.74711 -1.74751,2.11003 -2.87531,2.85714 -5.30825,3.51648 -11.94358,5.05495 -17.25183,8.57143 -1.1278,0.74711 -1.74752,2.11003 -2.87532,2.85714 -1.78318,1.18129 -3.96742,1.67586 -5.75061,2.85715 -1.12779,0.7471 -1.91686,1.90476 -2.87531,2.85714 -1.91687,0.95238 -3.96742,1.67586 -5.75061,2.85714 -2.25558,1.49422 -3.49504,4.22007 -5.75062,5.71429 -1.78318,1.18128 -3.96742,1.67586 -5.7506,2.85714 -2.25558,1.49422 -3.32594,4.50961 -5.75062,5.71429 -0.85725,0.42591 -1.91687,0 -2.87531,0 -1.91686,0.95238 -3.96742,1.67586 -5.75061,2.85714 -2.61744,1.73393 -6.07743,7.30523 -8.62593,8.57143 -0.85724,0.42591 -2.01804,-0.42592 -2.8753,0 -2.42467,1.20467 -3.32594,4.50961 -5.75061,5.71428 -0.85725,0.42592 -2.01806,-0.42592 -2.87531,0 -7.10604,3.53058 0.9925,2.85715 -5.75061,2.85715 4.00774,13.69163 -9.80316,13.18327 -14.37654,20 -1.18879,1.77192 -1.68651,3.94236 -2.8753,5.71428 -0.75186,1.12066 -2.12345,1.73648 -2.87531,2.85714 -1.1888,1.77193 -1.68651,3.94236 -2.87531,5.71429 -1.50371,2.24133 -4.24689,3.47296 -5.75061,5.71429 -2.37759,3.54385 -3.37303,7.88472 -5.75062,11.42857 -1.50371,2.24132 -4.53827,3.30493 -5.7506,5.71428 -0.42863,0.85184 0.67771,2.18371 0,2.85715 -3.83375,3.80952 -2.87532,-4.76191 -2.87532,2.85714 16.35757,2.3097 0.26809,11.96134 2.87532,17.14286 0.60617,1.20467 2.26913,1.65246 2.8753,2.85714 0.85726,1.70367 -1.35543,4.36741 0,5.71428 0.67772,0.67344 2.19759,-0.67343 2.8753,0 1.35543,1.34687 -0.85724,4.01062 0,5.71429 0.60617,1.20468 1.91687,1.90476 2.87532,2.85714 0.95843,0.95238 1.91687,1.90476 2.8753,2.85715 3.83374,5.71428 7.48407,11.55436 11.50123,17.14285 1.57565,2.19199 4.24689,3.47296 5.75061,5.71429 0.35706,0.5322 5.56637,11.24549 5.75061,11.42857 1.51543,1.50585 3.96743,1.67586 5.75062,2.85714 1.12778,0.74711 1.91687,1.90476 2.8753,2.85715 1.91687,0.95238 3.96743,1.67586 5.75062,2.85714 2.25557,1.49422 3.32594,4.50961 5.75061,5.71428 3.83375,1.90477 2.8753,-2.85714 2.8753,2.85715 25.87777,-10e-6 51.75553,0 77.63329,0 26.8362,-10e-6 53.67239,0 80.5086,0 5.75061,-0.95238 11.48049,-2.03788 17.25184,-2.85715 2.84641,-0.40406 5.75061,0 8.62592,0 5.75061,0 11.50123,0 17.25184,0 17.25184,0 34.50368,0 51.75553,0 4.79217,-3.80952 9.58435,-7.61904 14.37653,-11.42857 0,-0.95238 -0.67772,-2.18371 0,-2.85714 3.83374,-3.80952 2.8753,4.7619 2.8753,-2.85714 3.83374,-0.95238 7.66749,-1.90476 11.50123,-2.85715 0.95844,-0.95238 1.66297,-2.2548 2.87531,-2.85714 0.85725,-0.42592 2.19758,0.67344 2.87531,0 0.67772,-0.67343 -0.42863,-2.00531 0,-2.85714 0.60617,-1.20468 2.26913,-1.65247 2.8753,-2.85714 0.42863,-0.85184 -0.67771,-2.18371 0,-2.85715 0.67772,-0.67343 2.01806,0.42592 2.87531,0 1.21233,-0.60234 1.91687,-1.90476 2.87531,-2.85714 0.95843,-0.95238 2.26913,-1.65247 2.8753,-2.85714 0.42863,-0.85184 -0.67771,-2.18371 0,-2.85715 0.67772,-0.67343 2.19759,0.67344 2.87531,0 0.67772,-0.67343 -0.42862,-2.0053 0,-2.85714 1.77651,-3.53058 2.77605,-2.85714 5.75061,-2.85714 1.91687,-4.76191 4.11846,-9.42018 5.75062,-14.28572 0.52391,-1.56182 0,-17.76661 0,-20 0,-11.42857 0,-22.85714 0,-34.28571 0,-1.34714 0.13032,-14.15622 0,-14.28571 -0.67772,-0.67344 -1.91688,0 -2.87531,0 -0.95844,-3.80953 -1.40767,-7.78266 -2.87531,-11.42858 -1.00679,-2.50107 -4.53828,-3.30493 -5.75061,-5.71428 -0.57002,-1.13284 0.58782,-7.98733 0,-8.57143 -0.67772,-0.67344 -2.19759,0.67343 -2.87531,0 -0.78675,-0.78178 0.77991,-9.87861 0,-11.42857 -0.60617,-1.20468 -2.26913,-1.65247 -2.8753,-2.85714 -1.80844,-3.59402 4.1295,-5.71429 -2.87531,-5.71429 -3.83374,-3.80952 -7.66748,-7.61905 -11.50123,-11.42857 0,-0.95238 0.67772,-2.18371 0,-2.85714 -0.67771,-0.67344 -2.01805,0.42591 -2.87531,0 -2.82938,-1.40576 -8.67184,-10.02282 -11.50122,-11.42858 -0.85726,-0.42591 -2.1976,0.67344 -2.87531,0 -0.67772,-0.67343 0.67771,-2.1837 0,-2.85714 -0.67772,-0.67343 -2.19759,0.67344 -2.87531,0 -0.67771,-0.67343 0.67772,-2.18371 0,-2.85714 -0.67771,-0.67344 -2.19758,0.67343 -2.8753,0 -0.67772,-0.67344 0.67772,-2.18371 0,-2.85714 -0.96868,-0.96257 -4.78193,0.96256 -5.75061,0 -0.67772,-0.67344 0.67771,-2.18371 0,-2.85715 -0.67772,-0.67343 -1.91688,0 -2.87532,0 -0.95843,0 -1.91687,0 -2.8753,0 -9.58436,0 -19.16871,0 -28.75307,0 4.93002,-29.00435 -12.96559,-1.45511 -17.25184,-5.71428 -0.67772,-0.67344 0.67772,-2.18371 0,-2.85715 -0.67772,-0.67343 -2.01805,0.42592 -2.87531,0 -1.21234,-0.60233 -1.66296,-2.2548 -2.8753,-2.85714 -0.85726,-0.42592 -2.1976,0.67344 -2.87531,0 -0.67772,-0.67343 0.67771,-2.18371 0,-2.85714 -0.67772,-0.67344 -2.19759,0.67343 -2.87531,0 -3.83374,-3.80953 4.79218,-2.85714 -2.8753,-2.85714 -4.79218,-1.90476 -9.48007,-4.09244 -14.37653,-5.71429 -1.80973,-0.59943 -11.78484,0 -14.37654,0 -0.95844,0 -1.91687,0 -2.87531,0 -0.95843,0 -2.01806,0.42592 -2.8753,0 -1.21234,-0.60234 -1.66298,-2.2548 -2.87532,-2.85714 -0.87504,-0.43477 -7.331,0 -8.62592,0 -0.95843,0 -2.19758,0.67343 -2.8753,0 -0.67771,-0.67344 0.92982,-3.08813 0,-2.85715 -4.15828,1.03301 -7.66749,3.80953 -11.50123,5.71429 z"
       id="path3462"
       inkscape:connector-curvature="0" />
    <path
       style="fill:#666666;stroke:#000000;stroke-width:1.86261737px;stroke-linecap:butt;stroke-linejoin:miter;stroke-opacity:1"
       d="m 29.594299,890.10458 c 20.52435,-24.9117 37.90742,-48.92407 74.537471,-57.73008 56.94786,-52.98289 73.43389,2.09566 95.32067,24.24366 l -9.52139,106.65917 C 82.908049,1015.3251 43.754289,1010.1548 13.711719,936.73538 z"
       id="path3548"
       inkscape:connector-curvature="0"
       sodipodi:nodetypes="cccccc" />
    <path
       style="fill:#cccccc;stroke:#000000;stroke-width:0.79942095px;stroke-linecap:butt;stroke-linejoin:miter;stroke-opacity:1"
       d="m 393.74923,852.12977 c -17.11299,6.22529 -142.59409,18.45411 -139.45835,49.98945 l -46.48995,9.23791 c -104.34154,44.21961 11.59778,148.15927 66.65002,120.78037 72.65993,16.7895 136.84179,-4.9655 159.73876,-8.0812 l 38.43738,-46.8526 0.0143,-33.65429 -16.1739,-48.35472 -18.21713,-30.17196 z"
       id="path3546"
       inkscape:connector-curvature="0"
       sodipodi:nodetypes="cccccccccc" />
    <path
       style="fill:#008000;fill-opacity:0.46951222;stroke:#000000;stroke-width:1px;stroke-linecap:butt;stroke-linejoin:miter;stroke-opacity:1"
       d="m 172.39801,821.57358 c 11.27045,13.33076 17.42024,23.61412 28.28953,35.70723 -7.02791,48.10199 -11.03577,64.97926 7.7451,53.35951 19.04008,-4.07924 15.89358,-2.69323 16.74367,-4.45377 1.82322,-10.44766 5.44588,-15.49703 3.7955,-36.3655 -14.992,-46.1868 -31.21115,-51.03834 -40.71248,-62.45088 -5.60302,-0.46612 -15.79798,9.88802 -15.86132,14.20341 z"
       id="path3571"
       inkscape:connector-curvature="0"
       sodipodi:nodetypes="ccccccc"
       inkscape:export-xdpi="54.299999"
       inkscape:export-ydpi="54.299999" />
  </g>
</svg>
